<svg xmlns="http://www.w3.org/2000/svg" viewBox="0 0 7.72 9.72"><title>Asset 6</title><g id="Layer_2" data-name="Layer 2"><g id="Layer_1-2" data-name="Layer 1"><path d="M6,3A1.88,1.88,0,0,1,5.12.43a.3.3,0,0,0,0-.29A.27.27,0,0,0,4.88,0,2.76,2.76,0,0,0,2.8.75,3.83,3.83,0,0,0,2,3.51c0,.06,0,.11,0,.16a6.55,6.55,0,0,0,.12,1.15,5.34,5.34,0,0,1,.08.56c0,.16,0,.2,0,.2s0,0-.14,0a.32.32,0,0,1-.25-.12,2.58,2.58,0,0,1-.25-1.6.27.27,0,0,0-.07-.23.27.27,0,0,0-.21-.09C.55,3.57,0,4.78,0,5.86A3.8,3.8,0,0,0,.3,7.34a4.06,4.06,0,0,0,.83,1.22A3.78,3.78,0,0,0,3.86,9.72,3.88,3.88,0,0,0,7.72,5.86,3.64,3.64,0,0,0,6,3Z" style="fill:#fe685e"/></g></g></svg>