<svg xmlns="http://www.w3.org/2000/svg" viewBox="0 0 10 15.19"><title>Asset 3</title><g id="Layer_2" data-name="Layer 2"><g id="Layer_1-2" data-name="Layer 1"><path d="M7.55,15.19a1.12,1.12,0,0,0,1.12-1h0l0-.5a.32.32,0,0,0-.19-.32L7,12.63a.33.33,0,0,0-.46.28L6.43,14a1.11,1.11,0,0,0,1,1.19Z" transform="translate(0 0)" style="fill:#fe685e"/><path d="M6.83,10.8l1.82.85a.32.32,0,0,0,.45-.2l.65-2.32c.53-2.47.2-4.31-.91-5.06A1.61,1.61,0,0,0,7.06,4h0a2.72,2.72,0,0,0-.7.7A3.21,3.21,0,0,0,5.9,7l.75,3.54A.35.35,0,0,0,6.83,10.8Z" transform="translate(0 0)" style="fill:#fe685e"/><path d="M3,8.87l-1.55.69a.34.34,0,0,0-.2.32l0,.5a1.12,1.12,0,1,0,2.24-.15L3.49,9.14A.33.33,0,0,0,3,8.87Z" transform="translate(0 0)" style="fill:#fe685e"/><path d="M1.34,7.88,3.16,7a.33.33,0,0,0,.18-.23L4.1,3.27A3.21,3.21,0,0,0,3.65,1,2.26,2.26,0,0,0,3,.25h0A1.59,1.59,0,0,0,1.17.3C.05,1.05-.28,2.89.25,5.36L.89,7.68A.32.32,0,0,0,1.34,7.88Z" transform="translate(0 0)" style="fill:#fe685e"/></g></g></svg>